<mxfile host="app.diagrams.net" agent="Mozilla/5.0 (Macintosh; Intel Mac OS X 10_15_7) AppleWebKit/537.36 (KHTML, like Gecko) Chrome/128.0.0.0 Safari/537.36" version="24.8.4">
  <diagram name="Page-1" id="9361dd3d-8414-5efd-6122-117bd74ce7a7">
    <mxGraphModel dx="1689" dy="1372" grid="1" gridSize="10" guides="1" tooltips="1" connect="1" arrows="1" fold="1" page="0" pageScale="1.5" pageWidth="826" pageHeight="1169" background="none" math="0" shadow="0">
      <root>
        <mxCell id="0" />
        <mxCell id="1" parent="0" />
        <mxCell id="fEAafGRLiB6YgyCumcM4-89" value="Actor" style="shape=umlActor;verticalLabelPosition=bottom;verticalAlign=top;html=1;" vertex="1" parent="1">
          <mxGeometry x="-790" y="-570" width="50" height="90" as="geometry" />
        </mxCell>
        <mxCell id="fEAafGRLiB6YgyCumcM4-91" value="" style="html=1;points=[[0,0,0,0,5],[0,1,0,0,-5],[1,0,0,0,5],[1,1,0,0,-5]];perimeter=orthogonalPerimeter;outlineConnect=0;targetShapes=umlLifeline;portConstraint=eastwest;newEdgeStyle={&quot;curved&quot;:0,&quot;rounded&quot;:0};fillColor=#ffe6cc;strokeColor=#d79b00;" vertex="1" parent="1">
          <mxGeometry x="-610" y="-530" width="10" height="610" as="geometry" />
        </mxCell>
        <mxCell id="fEAafGRLiB6YgyCumcM4-93" style="edgeStyle=orthogonalEdgeStyle;rounded=0;orthogonalLoop=1;jettySize=auto;html=1;exitX=0.5;exitY=0.5;exitDx=0;exitDy=0;exitPerimeter=0;entryX=0;entryY=0;entryDx=0;entryDy=5;entryPerimeter=0;" edge="1" parent="1" source="fEAafGRLiB6YgyCumcM4-89" target="fEAafGRLiB6YgyCumcM4-91">
          <mxGeometry relative="1" as="geometry" />
        </mxCell>
        <mxCell id="fEAafGRLiB6YgyCumcM4-94" value="Workflow" style="verticalAlign=top;align=left;spacingTop=8;spacingLeft=2;spacingRight=12;shape=cube;size=10;direction=south;fontStyle=4;html=1;whiteSpace=wrap;fillColor=#f8cecc;strokeColor=#b85450;" vertex="1" parent="1">
          <mxGeometry x="-670" y="-330" width="120" height="60" as="geometry" />
        </mxCell>
        <mxCell id="fEAafGRLiB6YgyCumcM4-95" value="Audit trail" style="verticalAlign=top;align=left;spacingTop=8;spacingLeft=2;spacingRight=12;shape=cube;size=10;direction=south;fontStyle=4;html=1;whiteSpace=wrap;fillColor=#f8cecc;strokeColor=#b85450;" vertex="1" parent="1">
          <mxGeometry x="-670" y="-220" width="120" height="60" as="geometry" />
        </mxCell>
        <mxCell id="fEAafGRLiB6YgyCumcM4-96" value="Stock" style="verticalAlign=top;align=left;spacingTop=8;spacingLeft=2;spacingRight=12;shape=cube;size=10;direction=south;fontStyle=4;html=1;whiteSpace=wrap;fillColor=#f8cecc;strokeColor=#b85450;" vertex="1" parent="1">
          <mxGeometry x="-670" y="-20" width="120" height="60" as="geometry" />
        </mxCell>
        <mxCell id="fEAafGRLiB6YgyCumcM4-97" value="External data sync&lt;div&gt;ONDC&lt;/div&gt;" style="verticalAlign=top;align=left;spacingTop=8;spacingLeft=2;spacingRight=12;shape=cube;size=10;direction=south;fontStyle=4;html=1;whiteSpace=wrap;fillColor=#f8cecc;strokeColor=#b85450;" vertex="1" parent="1">
          <mxGeometry x="-665" y="-120" width="120" height="60" as="geometry" />
        </mxCell>
        <mxCell id="fEAafGRLiB6YgyCumcM4-100" value="Business&amp;nbsp;&lt;div&gt;Logic&lt;/div&gt;" style="shape=module;align=left;spacingLeft=20;align=center;verticalAlign=top;whiteSpace=wrap;html=1;fillColor=#dae8fc;strokeColor=#6c8ebf;" vertex="1" parent="1">
          <mxGeometry x="-660" y="-440" width="100" height="50" as="geometry" />
        </mxCell>
        <mxCell id="fEAafGRLiB6YgyCumcM4-101" value="" style="shape=flexArrow;endArrow=classic;html=1;rounded=0;" edge="1" parent="1">
          <mxGeometry width="50" height="50" relative="1" as="geometry">
            <mxPoint x="-520" y="-280.5" as="sourcePoint" />
            <mxPoint x="-310" y="-280.5" as="targetPoint" />
          </mxGeometry>
        </mxCell>
        <mxCell id="fEAafGRLiB6YgyCumcM4-102" value="Actor" style="shape=umlActor;verticalLabelPosition=bottom;verticalAlign=top;html=1;" vertex="1" parent="1">
          <mxGeometry x="-320" y="-610" width="50" height="90" as="geometry" />
        </mxCell>
        <mxCell id="fEAafGRLiB6YgyCumcM4-103" value="" style="html=1;points=[[0,0,0,0,5],[0,1,0,0,-5],[1,0,0,0,5],[1,1,0,0,-5]];perimeter=orthogonalPerimeter;outlineConnect=0;targetShapes=umlLifeline;portConstraint=eastwest;newEdgeStyle={&quot;curved&quot;:0,&quot;rounded&quot;:0};fillColor=#ffe6cc;strokeColor=#d79b00;" vertex="1" parent="1">
          <mxGeometry x="-140" y="-570" width="10" height="120" as="geometry" />
        </mxCell>
        <mxCell id="fEAafGRLiB6YgyCumcM4-104" style="edgeStyle=orthogonalEdgeStyle;rounded=0;orthogonalLoop=1;jettySize=auto;html=1;exitX=0.5;exitY=0.5;exitDx=0;exitDy=0;exitPerimeter=0;entryX=0;entryY=0;entryDx=0;entryDy=5;entryPerimeter=0;" edge="1" parent="1" source="fEAafGRLiB6YgyCumcM4-102" target="fEAafGRLiB6YgyCumcM4-103">
          <mxGeometry relative="1" as="geometry" />
        </mxCell>
        <mxCell id="fEAafGRLiB6YgyCumcM4-105" value="Workflow" style="verticalAlign=top;align=left;spacingTop=8;spacingLeft=2;spacingRight=12;shape=cube;size=10;direction=south;fontStyle=4;html=1;whiteSpace=wrap;fillColor=#f8cecc;strokeColor=#b85450;" vertex="1" parent="1">
          <mxGeometry x="-20" y="-310" width="120" height="60" as="geometry" />
        </mxCell>
        <mxCell id="fEAafGRLiB6YgyCumcM4-106" value="Audit trail" style="verticalAlign=top;align=left;spacingTop=8;spacingLeft=2;spacingRight=12;shape=cube;size=10;direction=south;fontStyle=4;html=1;whiteSpace=wrap;fillColor=#f8cecc;strokeColor=#b85450;" vertex="1" parent="1">
          <mxGeometry x="120" y="-310" width="120" height="60" as="geometry" />
        </mxCell>
        <mxCell id="fEAafGRLiB6YgyCumcM4-107" value="Stock" style="verticalAlign=top;align=left;spacingTop=8;spacingLeft=2;spacingRight=12;shape=cube;size=10;direction=south;fontStyle=4;html=1;whiteSpace=wrap;fillColor=#f8cecc;strokeColor=#b85450;" vertex="1" parent="1">
          <mxGeometry x="440" y="-310" width="120" height="60" as="geometry" />
        </mxCell>
        <mxCell id="fEAafGRLiB6YgyCumcM4-108" value="External data sync&lt;div&gt;ONDC&lt;/div&gt;" style="verticalAlign=top;align=left;spacingTop=8;spacingLeft=2;spacingRight=12;shape=cube;size=10;direction=south;fontStyle=4;html=1;whiteSpace=wrap;fillColor=#f8cecc;strokeColor=#b85450;" vertex="1" parent="1">
          <mxGeometry x="280" y="-310" width="120" height="60" as="geometry" />
        </mxCell>
        <mxCell id="fEAafGRLiB6YgyCumcM4-111" value="" style="edgeStyle=orthogonalEdgeStyle;rounded=0;orthogonalLoop=1;jettySize=auto;html=1;" edge="1" parent="1" source="fEAafGRLiB6YgyCumcM4-109" target="fEAafGRLiB6YgyCumcM4-110">
          <mxGeometry relative="1" as="geometry" />
        </mxCell>
        <mxCell id="fEAafGRLiB6YgyCumcM4-109" value="Business&amp;nbsp;&lt;div&gt;Logic&lt;/div&gt;" style="shape=module;align=left;spacingLeft=20;align=center;verticalAlign=top;whiteSpace=wrap;html=1;fillColor=#dae8fc;strokeColor=#6c8ebf;" vertex="1" parent="1">
          <mxGeometry x="-190" y="-530" width="110" height="50" as="geometry" />
        </mxCell>
        <mxCell id="fEAafGRLiB6YgyCumcM4-110" value="" style="sketch=0;aspect=fixed;pointerEvents=1;shadow=0;dashed=0;html=1;strokeColor=none;labelPosition=center;verticalLabelPosition=bottom;verticalAlign=top;align=center;fillColor=#00188D;shape=mxgraph.azure.queue_generic" vertex="1" parent="1">
          <mxGeometry x="200" y="-527.5" width="150" height="45" as="geometry" />
        </mxCell>
        <mxCell id="fEAafGRLiB6YgyCumcM4-114" value="" style="endArrow=classic;html=1;rounded=0;exitX=0;exitY=0;exitDx=0;exitDy=55;exitPerimeter=0;entryX=0.07;entryY=1.015;entryDx=0;entryDy=0;entryPerimeter=0;" edge="1" parent="1" source="fEAafGRLiB6YgyCumcM4-105" target="fEAafGRLiB6YgyCumcM4-110">
          <mxGeometry width="50" height="50" relative="1" as="geometry">
            <mxPoint x="50" y="-320" as="sourcePoint" />
            <mxPoint x="100" y="-370" as="targetPoint" />
          </mxGeometry>
        </mxCell>
        <mxCell id="fEAafGRLiB6YgyCumcM4-115" value="" style="endArrow=classic;html=1;rounded=0;exitX=0;exitY=0;exitDx=0;exitDy=55;exitPerimeter=0;entryX=0.243;entryY=1.06;entryDx=0;entryDy=0;entryPerimeter=0;" edge="1" parent="1" source="fEAafGRLiB6YgyCumcM4-106" target="fEAafGRLiB6YgyCumcM4-110">
          <mxGeometry width="50" height="50" relative="1" as="geometry">
            <mxPoint x="180" y="-340" as="sourcePoint" />
            <mxPoint x="230" y="-390" as="targetPoint" />
          </mxGeometry>
        </mxCell>
        <mxCell id="fEAafGRLiB6YgyCumcM4-116" value="" style="endArrow=classic;html=1;rounded=0;exitX=0;exitY=0;exitDx=0;exitDy=55;exitPerimeter=0;entryX=0.5;entryY=1;entryDx=0;entryDy=0;entryPerimeter=0;" edge="1" parent="1" source="fEAafGRLiB6YgyCumcM4-108" target="fEAafGRLiB6YgyCumcM4-110">
          <mxGeometry width="50" height="50" relative="1" as="geometry">
            <mxPoint x="350" y="-360" as="sourcePoint" />
            <mxPoint x="400" y="-410" as="targetPoint" />
          </mxGeometry>
        </mxCell>
        <mxCell id="fEAafGRLiB6YgyCumcM4-117" value="" style="endArrow=classic;html=1;rounded=0;exitX=0;exitY=0;exitDx=0;exitDy=55;exitPerimeter=0;entryX=0.816;entryY=1.104;entryDx=0;entryDy=0;entryPerimeter=0;" edge="1" parent="1" source="fEAafGRLiB6YgyCumcM4-107" target="fEAafGRLiB6YgyCumcM4-110">
          <mxGeometry width="50" height="50" relative="1" as="geometry">
            <mxPoint x="465" y="-420" as="sourcePoint" />
            <mxPoint x="515" y="-470" as="targetPoint" />
          </mxGeometry>
        </mxCell>
        <mxCell id="fEAafGRLiB6YgyCumcM4-120" value="&lt;h2&gt;&lt;b&gt;Event Stream&lt;/b&gt;&lt;/h2&gt;" style="text;html=1;align=center;verticalAlign=middle;whiteSpace=wrap;rounded=0;" vertex="1" parent="1">
          <mxGeometry x="225" y="-580" width="100" height="40" as="geometry" />
        </mxCell>
        <mxCell id="fEAafGRLiB6YgyCumcM4-121" value="&lt;h1&gt;User Action On Record&lt;/h1&gt;" style="text;html=1;align=center;verticalAlign=middle;whiteSpace=wrap;rounded=0;" vertex="1" parent="1">
          <mxGeometry x="-210" y="-630" width="140" height="40" as="geometry" />
        </mxCell>
        <mxCell id="fEAafGRLiB6YgyCumcM4-122" value="&lt;h1&gt;&lt;b&gt;User Action On Record&lt;/b&gt;&lt;/h1&gt;" style="text;html=1;align=center;verticalAlign=middle;whiteSpace=wrap;rounded=0;" vertex="1" parent="1">
          <mxGeometry x="-680" y="-600" width="140" height="40" as="geometry" />
        </mxCell>
        <mxCell id="fEAafGRLiB6YgyCumcM4-123" value="&lt;h2&gt;After Events Framework&lt;/h2&gt;" style="text;html=1;align=center;verticalAlign=middle;whiteSpace=wrap;rounded=0;" vertex="1" parent="1">
          <mxGeometry x="-490" y="-320" width="150" height="30" as="geometry" />
        </mxCell>
      </root>
    </mxGraphModel>
  </diagram>
</mxfile>
